<svg height="458pt" viewBox="-60 0 458 458.7" width="458pt" xmlns="http://www.w3.org/2000/svg"><path d="m338.550781 408v30.699219c-.03125 11.03125-8.96875 19.96875-20 20h-298.199219c-11.046874.003906-20.003906-8.953125-20-20v-30.699219zm0 0" fill="#00acea"/><path d="m338.550781 108v300h-338.199219v-300h117.597657v25.398438c-.019531 5.3125 2.082031 10.410156 5.839843 14.164062 3.753907 3.753906 8.851563 5.855469 14.160157 5.835938h63c11.046875.003906 20.003906-8.953126 20-20v-25.398438zm0 0" fill="#00efd1"/><path d="m338.550781 20v88h-338.199219v-88c-.003906-11.046875 8.953126-20.00390625 20-20h298.296876c11.015624.0390625 19.917968 8.988281 19.902343 20zm0 0" fill="#00acea"/><path d="m220.949219 108v25.398438c.003906 11.046874-8.953125 20.003906-20 20h-63c-5.308594.019531-10.40625-2.082032-14.160157-5.835938-3.757812-3.753906-5.859374-8.851562-5.839843-14.164062v-25.398438zm0 0" fill="#d4e1f4"/><g fill="#00efd1"><path d="m59.449219 78.398438c-5.515625-.015626-9.984375-4.480469-10-10v-28c0-5.519532 4.476562-10 10-10 5.523437 0 10 4.480468 10 10v28c-.015625 5.519531-4.484375 9.984374-10 10zm0 0"/><path d="m99.449219 78.398438c-5.515625-.015626-9.984375-4.480469-10-10v-28c0-5.519532 4.476562-10 10-10 5.523437 0 10 4.480468 10 10v28c-.015625 5.519531-4.484375 9.984374-10 10zm0 0"/><path d="m139.449219 78.398438c-5.515625-.015626-9.984375-4.480469-10-10v-28c0-5.519532 4.476562-10 10-10 5.523437 0 10 4.480468 10 10v28c-.015625 5.519531-4.484375 9.984374-10 10zm0 0"/></g></svg>