<?xml version="1.0" encoding="iso-8859-1"?>
<!-- Generator: Adobe Illustrator 19.0.0, SVG Export Plug-In . SVG Version: 6.00 Build 0)  -->
<svg version="1.1" id="Capa_1" xmlns="http://www.w3.org/2000/svg" xmlns:xlink="http://www.w3.org/1999/xlink" x="0px" y="0px"
	 viewBox="0 0 512 512" style="enable-background:new 0 0 512 512;" xml:space="preserve">
<path style="fill:#44DE74;" d="M440.023,451.517c0,33.356-27.137,60.483-60.493,60.483H132.599
	c-33.356,0-60.483-27.127-60.483-60.483l-0.01-31.426l-0.1-268.648l-0.02-49.064v-9.179l-0.01-32.716
	C71.977,27.127,99.113,0,132.469,0h246.931c33.356,0,60.483,27.127,60.483,60.483l0.01,32.716v9.179l0.02,49.064l0.1,268.648
	L440.023,451.517z"/>
<path style="fill:#00B77C;" d="M440.023,451.517c0,33.356-27.137,60.483-60.493,60.483H258.055V0h121.346
	c33.356,0,60.483,27.127,60.483,60.483l0.01,32.716v9.179l0.02,49.064l0.1,268.649L440.023,451.517z"/>
<polygon style="fill:#606979;" points="439.913,151.442 72.007,151.442 71.987,102.378 71.987,93.199 439.893,93.199 
	439.893,102.378 "/>
<g>
	<polygon style="fill:#2D363E;" points="439.913,151.442 258.055,151.442 258.055,93.199 439.893,93.199 439.893,102.378 	"/>
	<path style="fill:#2D363E;" d="M369.698,220.354h-36.701c-8.283,0-14.998-6.715-14.998-14.998s6.715-14.998,14.998-14.998h36.701
		c8.283,0,14.998,6.715,14.998,14.998S377.981,220.354,369.698,220.354z"/>
</g>
<path style="fill:#D5D9E1;" d="M439.893,102.378H71.987l-0.01-41.895C71.977,27.127,99.113,0,132.469,0h246.931
	c33.356,0,60.483,27.127,60.483,60.483L439.893,102.378z"/>
<g>
	<path style="fill:#606979;" d="M440.023,451.517c0,33.356-27.137,60.483-60.493,60.483H132.599
		c-33.356,0-60.483-27.127-60.483-60.483l-0.01-31.426h367.907L440.023,451.517z"/>
	<path style="fill:#606979;" d="M135.359,74.461c-0.49,0-0.98-0.03-1.471-0.08c-0.489-0.05-0.979-0.12-1.46-0.22
		c-0.479-0.09-0.96-0.22-1.42-0.36c-0.47-0.14-0.939-0.31-1.39-0.49c-0.45-0.19-0.89-0.4-1.32-0.63c-0.43-0.23-0.859-0.48-1.27-0.75
		c-0.4-0.27-0.8-0.57-1.18-0.88c-0.381-0.31-0.75-0.64-1.091-0.99c-0.35-0.34-0.68-0.71-1-1.09c-0.3-0.38-0.6-0.78-0.87-1.19
		c-0.27-0.4-0.52-0.83-0.75-1.26c-0.229-0.43-0.439-0.88-0.63-1.33c-0.189-0.45-0.35-0.91-0.489-1.38
		c-0.15-0.47-0.271-0.95-0.36-1.42c-0.1-0.48-0.18-0.97-0.22-1.46c-0.051-0.49-0.08-0.99-0.08-1.47c0-0.49,0.029-0.99,0.08-1.48
		c0.04-0.49,0.12-0.98,0.22-1.46c0.09-0.47,0.21-0.95,0.36-1.42c0.14-0.47,0.3-0.93,0.489-1.38c0.19-0.45,0.4-0.9,0.63-1.33
		c0.23-0.43,0.48-0.86,0.75-1.26c0.271-0.41,0.57-0.81,0.87-1.19c0.32-0.38,0.65-0.75,1-1.09c0.341-0.35,0.71-0.68,1.091-0.99
		c0.38-0.31,0.779-0.61,1.18-0.88c0.41-0.27,0.84-0.52,1.27-0.75c0.431-0.23,0.87-0.44,1.32-0.63c0.45-0.18,0.92-0.35,1.39-0.49
		c0.46-0.14,0.94-0.27,1.42-0.36c0.48-0.1,0.971-0.17,1.46-0.22c0.971-0.1,1.971-0.1,2.95,0c0.48,0.05,0.971,0.12,1.45,0.22
		c0.48,0.09,0.96,0.22,1.43,0.36c0.46,0.14,0.931,0.31,1.381,0.49c0.449,0.19,0.899,0.4,1.329,0.63
		c0.431,0.23,0.851,0.48,1.261,0.75c0.41,0.27,0.8,0.57,1.18,0.88c0.38,0.31,0.75,0.64,1.1,0.99c0.341,0.34,0.681,0.71,0.99,1.09
		c0.311,0.38,0.601,0.78,0.87,1.19c0.271,0.4,0.53,0.83,0.76,1.26c0.221,0.43,0.431,0.88,0.62,1.33c0.19,0.45,0.36,0.91,0.5,1.38
		c0.141,0.47,0.26,0.95,0.36,1.42c0.1,0.48,0.17,0.97,0.22,1.46c0.05,0.49,0.07,0.99,0.07,1.48c0,0.48-0.021,0.98-0.07,1.47
		c-0.05,0.49-0.12,0.98-0.22,1.46c-0.101,0.47-0.22,0.95-0.36,1.42c-0.14,0.47-0.31,0.93-0.5,1.38c-0.189,0.45-0.399,0.9-0.62,1.33
		c-0.229,0.43-0.489,0.86-0.76,1.26c-0.27,0.41-0.56,0.81-0.87,1.19c-0.31,0.38-0.649,0.75-0.99,1.09c-0.35,0.35-0.72,0.68-1.1,0.99
		s-0.77,0.61-1.18,0.88c-0.41,0.27-0.83,0.52-1.261,0.75c-0.43,0.23-0.88,0.44-1.329,0.63c-0.45,0.18-0.921,0.35-1.381,0.49
		c-0.47,0.14-0.949,0.27-1.43,0.36c-0.479,0.1-0.97,0.17-1.45,0.22C136.349,74.431,135.849,74.461,135.359,74.461z"/>
	<path style="fill:#606979;" d="M180.354,74.451c-0.49,0-0.98-0.02-1.471-0.07c-0.489-0.05-0.979-0.12-1.46-0.22
		c-0.479-0.1-0.96-0.22-1.42-0.36c-0.47-0.14-0.93-0.31-1.38-0.49c-0.45-0.19-0.899-0.4-1.33-0.63c-0.43-0.23-0.859-0.48-1.26-0.75
		c-0.41-0.28-0.81-0.57-1.189-0.88c-0.381-0.31-0.75-0.64-1.091-0.99c-0.35-0.34-0.68-0.71-1-1.09c-0.3-0.38-0.6-0.78-0.87-1.19
		c-0.27-0.4-0.52-0.83-0.75-1.26c-0.229-0.43-0.439-0.88-0.63-1.33c-0.18-0.45-0.35-0.91-0.489-1.38
		c-0.15-0.47-0.271-0.95-0.36-1.42c-0.1-0.49-0.17-0.97-0.22-1.46c-0.051-0.49-0.08-0.99-0.08-1.48c0-0.48,0.029-0.98,0.08-1.47
		c0.05-0.49,0.12-0.98,0.22-1.46c0.09-0.47,0.21-0.95,0.36-1.42c0.14-0.47,0.31-0.93,0.489-1.38c0.19-0.45,0.4-0.9,0.63-1.33
		c0.23-0.43,0.48-0.86,0.75-1.26c0.271-0.41,0.57-0.81,0.87-1.19c0.32-0.38,0.65-0.75,1-1.09c0.341-0.35,0.71-0.68,1.091-0.99
		c0.38-0.31,0.779-0.6,1.189-0.88c0.4-0.27,0.83-0.52,1.26-0.75c0.431-0.23,0.88-0.44,1.33-0.63c0.45-0.18,0.91-0.35,1.38-0.49
		c0.46-0.14,0.94-0.27,1.42-0.36c0.48-0.1,0.971-0.17,1.46-0.22c0.98-0.1,1.971-0.1,2.95,0c0.48,0.05,0.971,0.12,1.45,0.22
		c0.48,0.09,0.96,0.22,1.43,0.36c0.46,0.14,0.931,0.31,1.381,0.49c0.449,0.19,0.899,0.4,1.329,0.63
		c0.431,0.23,0.851,0.48,1.261,0.75c0.41,0.28,0.8,0.57,1.18,0.88c0.38,0.31,0.75,0.64,1.1,0.99c0.341,0.34,0.681,0.71,0.99,1.09
		c0.311,0.38,0.601,0.78,0.87,1.19c0.271,0.4,0.53,0.83,0.76,1.26c0.221,0.43,0.431,0.88,0.62,1.33c0.19,0.45,0.351,0.91,0.5,1.38
		c0.141,0.47,0.26,0.95,0.36,1.42c0.09,0.48,0.17,0.97,0.22,1.46c0.05,0.49,0.07,0.99,0.07,1.47c0,0.49-0.021,0.99-0.07,1.48
		c-0.05,0.49-0.13,0.97-0.22,1.46c-0.101,0.47-0.22,0.95-0.36,1.42c-0.149,0.47-0.31,0.93-0.5,1.38c-0.189,0.45-0.399,0.9-0.62,1.33
		c-0.229,0.43-0.489,0.86-0.76,1.26c-0.27,0.41-0.56,0.81-0.87,1.19c-0.31,0.38-0.649,0.75-0.99,1.09c-0.35,0.35-0.72,0.68-1.1,0.99
		s-0.77,0.6-1.18,0.88c-0.41,0.27-0.83,0.52-1.261,0.75c-0.43,0.23-0.88,0.44-1.329,0.63c-0.45,0.18-0.921,0.35-1.381,0.49
		c-0.47,0.14-0.949,0.26-1.43,0.36c-0.479,0.1-0.97,0.17-1.45,0.22C181.344,74.431,180.844,74.451,180.354,74.451z"/>
</g>
<path style="fill:#9B9FAB;" d="M439.893,102.378H258.055V0h121.346c33.356,0,60.483,27.127,60.483,60.483L439.893,102.378z"/>
<g>
	<path style="fill:#2D363E;" d="M440.023,451.517c0,33.356-27.137,60.483-60.493,60.483H258.055v-91.909h181.959L440.023,451.517z"
		/>
	<path style="fill:#2D363E;" d="M378.536,74.456h-83.078c-8.283,0-14.998-6.715-14.998-14.998s6.715-14.998,14.998-14.998h83.078
		c8.283,0,14.998,6.715,14.998,14.998S386.819,74.456,378.536,74.456z"/>
</g>
<g>
</g>
<g>
</g>
<g>
</g>
<g>
</g>
<g>
</g>
<g>
</g>
<g>
</g>
<g>
</g>
<g>
</g>
<g>
</g>
<g>
</g>
<g>
</g>
<g>
</g>
<g>
</g>
<g>
</g>
</svg>
