<svg height="512pt" viewBox="0 0 512 512.0005" width="512pt" xmlns="http://www.w3.org/2000/svg" style="fill:#606873;"><path d="m102.4375 494.414062 140.011719-140.011718c2.8125-2.8125 4.394531-6.628906 4.394531-10.605469s-1.582031-7.792969-4.394531-10.605469c0 0 101.332031-101.332031 106.0625-106.066406l21.214843 21.214844-10.609374 10.605468c-5.851563 5.855469-5.855469 15.355469 0 21.214844l42.425781 42.421875c5.859375 5.859375 15.355469 5.859375 21.214843 0l84.851563-84.847656c5.851563-5.855469 5.855469-15.355469 0-21.214844l-42.425781-42.425781c-5.859375-5.855469-15.355469-5.855469-21.214844 0l-10.605469 10.609375-21.214843-21.214844 10.609374-10.605469c2.8125-2.8125 4.394532-6.625 4.394532-10.605468 0-3.976563-1.582032-7.792969-4.394532-10.605469-4.648437-4.644531-82.464843-82.464844-84.851562-84.851563-30.191406-30.195312-70.332031-46.820312-113.03125-46.820312h-67.277344c-6.609375 0-12.441406 4.328125-14.355468 10.652344-1.914063 6.328125.535156 13.160156 6.035156 16.828125l77.355468 51.570312c17.988282 11.992188 20.429688 37.398438 5.210938 52.617188-2.816406 2.8125-4.394531 6.628906-4.394531 10.605469 0 3.980468 1.578125 7.792968 4.394531 10.609374l31.816406 31.816407-84.851562 84.851562c-2.8125-2.8125-6.625-4.394531-10.605469-4.394531-3.976563 0-7.792969 1.582031-10.605469 4.394531-19.929687 19.933594-126.324218 126.328125-140.011718 140.011719-23.445313 23.449219-23.449219 61.402344 0 84.851562 23.449218 23.449219 61.402343 23.449219 84.851562 0zm373.351562-267.289062-63.640624 63.640625-21.210938-21.214844 63.636719-63.636719zm-63.640624-21.210938-21.210938 21.210938-21.210938-21.210938 21.210938-21.210937zm-168.875-151.824218-36.136719-24.089844h17.738281c34.683594 0 67.292969 13.507812 91.816406 38.03125 2.570313 2.570312 71.875 71.875 74.246094 74.242188-9.332031 9.332031-55.476562 55.480468-63.640625 63.640624l-64.882813-64.882812c17.746094-28.894531 9.992188-67.519531-19.140624-86.941406zm41.601562 151.824218 21.210938 21.210938-84.851563 84.851562-21.210937-21.210937zm-116.671875 95.457032 42.425781 42.425781-21.210937 21.210937-42.425781-42.425781zm-129.40625 129.40625 86.980469-86.980469 42.425781 42.425781-86.980469 86.976563c-11.722656 11.722656-30.699218 11.726562-42.425781 0-11.722656-11.722657-11.722656-30.699219 0-42.421875zm0 0"/></svg>
