<?xml version="1.0" encoding="iso-8859-1"?>
<!-- Generator: Adobe Illustrator 19.0.0, SVG Export Plug-In . SVG Version: 6.00 Build 0)  -->
<svg version="1.1" id="Capa_1" xmlns="http://www.w3.org/2000/svg" xmlns:xlink="http://www.w3.org/1999/xlink" x="0px" y="0px"
	 viewBox="0 0 469.333 469.333" style="enable-background:new 0 0 469.333 469.333;" xml:space="preserve">
<g>
	<g>
		<g>
			<path d="M426.667,0h-384C19.135,0,0,19.135,0,42.667v384c0,23.531,19.135,42.667,42.667,42.667h384
				c23.531,0,42.667-19.135,42.667-42.667v-384C469.333,19.135,450.198,0,426.667,0z M448,426.667
				c0,11.76-9.573,21.333-21.333,21.333h-384c-11.76,0-21.333-9.573-21.333-21.333v-320H448V426.667z M448,85.333H21.333V42.667
				c0-11.76,9.573-21.333,21.333-21.333h384c11.76,0,21.333,9.573,21.333,21.333V85.333z" style="fill:white;"/>
			<circle cx="53.333" cy="53.333" r="10.667" style="fill:white;"/>
			<circle cx="96" cy="53.333" r="10.667" style="fill:white;"/>
			<circle cx="138.667" cy="53.333" r="10.667" style="fill:white;"/>
			<path d="M298.667,320h42.667c5.896,0,10.667-4.771,10.667-10.667c0-5.896-4.771-10.667-10.667-10.667h-32V224
				c0-5.896-4.771-10.667-10.667-10.667S288,218.104,288,224v85.333C288,315.229,292.771,320,298.667,320z" style="fill:white;"/>
			<path d="M149.333,298.667H128c-5.896,0-10.667,4.771-10.667,10.667c0,5.896,4.771,10.667,10.667,10.667h21.333
				c17.646,0,32-14.354,32-32c0-17.646-14.354-32-32-32c-5.885,0-10.667-4.781-10.667-10.667c0-5.885,4.781-10.667,10.667-10.667
				h21.333c5.896,0,10.667-4.771,10.667-10.667c0-5.896-4.771-10.667-10.667-10.667h-21.333c-17.646,0-32,14.354-32,32
				c0,17.646,14.354,32,32,32c5.885,0,10.667,4.781,10.667,10.667C160,293.885,155.219,298.667,149.333,298.667z" style="fill:white;"/>
			<path d="M234.667,298.667h-21.333c-5.896,0-10.667,4.771-10.667,10.667c0,5.896,4.771,10.667,10.667,10.667h21.333
				c17.646,0,32-14.354,32-32c0-17.646-14.354-32-32-32c-5.885,0-10.667-4.781-10.667-10.667c0-5.885,4.781-10.667,10.667-10.667
				H256c5.896,0,10.667-4.771,10.667-10.667c0-5.896-4.771-10.667-10.667-10.667h-21.333c-17.646,0-32,14.354-32,32
				c0,17.646,14.354,32,32,32c5.885,0,10.667,4.781,10.667,10.667C245.333,293.885,240.552,298.667,234.667,298.667z" style="fill:white;"/>
		</g>
	</g>
</g>
<g>
</g>
<g>
</g>
<g>
</g>
<g>
</g>
<g>
</g>
<g>
</g>
<g>
</g>
<g>
</g>
<g>
</g>
<g>
</g>
<g>
</g>
<g>
</g>
<g>
</g>
<g>
</g>
<g>
</g>
</svg>
